<mxfile host="app.diagrams.net" modified="2023-04-17T06:01:54.438Z" agent="Mozilla/5.0 (Windows NT 10.0; Win64; x64) AppleWebKit/537.36 (KHTML, like Gecko) Chrome/112.0.0.0 Safari/537.36" etag="KMS8VwOyGRxTMFpBG4sh" version="21.1.8" type="device">
  <diagram name="페이지-1" id="B37C4a_MDxSIy_Qf4RXO">
    <mxGraphModel dx="2868" dy="6159" grid="1" gridSize="10" guides="1" tooltips="1" connect="1" arrows="1" fold="1" page="1" pageScale="1" pageWidth="3300" pageHeight="4681" math="0" shadow="0">
      <root>
        <mxCell id="0" />
        <mxCell id="1" parent="0" />
        <mxCell id="U5uW1hDHefTwVds0jNlU-5" value="&lt;span style=&quot;font-size: 24px;&quot;&gt;쇼핑나라&lt;/span&gt;" style="shape=umlFrame;whiteSpace=wrap;html=1;pointerEvents=0;width=260;height=70;" vertex="1" parent="1">
          <mxGeometry x="260" y="90" width="2590" height="1210" as="geometry" />
        </mxCell>
        <mxCell id="U5uW1hDHefTwVds0jNlU-27" style="edgeStyle=orthogonalEdgeStyle;rounded=0;orthogonalLoop=1;jettySize=auto;html=1;exitX=0.5;exitY=0;exitDx=0;exitDy=0;exitPerimeter=0;entryX=0.5;entryY=0.5;entryDx=0;entryDy=0;entryPerimeter=0;" edge="1" parent="1" source="U5uW1hDHefTwVds0jNlU-7" target="U5uW1hDHefTwVds0jNlU-6">
          <mxGeometry relative="1" as="geometry" />
        </mxCell>
        <mxCell id="U5uW1hDHefTwVds0jNlU-6" value="&lt;font style=&quot;font-size: 22px;&quot;&gt;회원&lt;/font&gt;" style="shape=umlActor;verticalLabelPosition=bottom;verticalAlign=top;html=1;" vertex="1" parent="1">
          <mxGeometry x="110" y="350" width="50" height="80" as="geometry" />
        </mxCell>
        <mxCell id="U5uW1hDHefTwVds0jNlU-7" value="&lt;font style=&quot;font-size: 22px;&quot;&gt;비회원&lt;/font&gt;" style="shape=umlActor;verticalLabelPosition=bottom;verticalAlign=top;html=1;" vertex="1" parent="1">
          <mxGeometry x="110" y="840" width="50" height="80" as="geometry" />
        </mxCell>
        <mxCell id="U5uW1hDHefTwVds0jNlU-8" value="&lt;font style=&quot;font-size: 22px;&quot;&gt;직원&lt;/font&gt;" style="shape=umlActor;verticalLabelPosition=bottom;verticalAlign=top;html=1;" vertex="1" parent="1">
          <mxGeometry x="2900" y="540" width="50" height="80" as="geometry" />
        </mxCell>
        <mxCell id="U5uW1hDHefTwVds0jNlU-10" value="&lt;font style=&quot;font-size: 24px;&quot;&gt;인증&lt;/font&gt;" style="ellipse;whiteSpace=wrap;html=1;" vertex="1" parent="1">
          <mxGeometry x="1350" y="570" width="170" height="120" as="geometry" />
        </mxCell>
        <mxCell id="U5uW1hDHefTwVds0jNlU-16" value="&lt;span style=&quot;font-size: 24px;&quot;&gt;상품 주문&lt;/span&gt;" style="ellipse;whiteSpace=wrap;html=1;" vertex="1" parent="1">
          <mxGeometry x="570" y="380" width="170" height="120" as="geometry" />
        </mxCell>
        <mxCell id="U5uW1hDHefTwVds0jNlU-17" value="&#xa;&lt;span style=&quot;color: rgb(0, 0, 0); font-family: Helvetica; font-size: 19px; font-style: normal; font-variant-ligatures: normal; font-variant-caps: normal; font-weight: 400; letter-spacing: normal; orphans: 2; text-align: center; text-indent: 0px; text-transform: none; widows: 2; word-spacing: 0px; -webkit-text-stroke-width: 0px; background-color: rgb(255, 255, 255); text-decoration-thickness: initial; text-decoration-style: initial; text-decoration-color: initial; float: none; display: inline !important;&quot;&gt;use&lt;/span&gt;&#xa;&#xa;" style="endArrow=open;endSize=12;html=1;rounded=0;entryX=0;entryY=0.5;entryDx=0;entryDy=0;exitX=0.5;exitY=0.5;exitDx=0;exitDy=0;exitPerimeter=0;" edge="1" parent="1" source="U5uW1hDHefTwVds0jNlU-6" target="U5uW1hDHefTwVds0jNlU-16">
          <mxGeometry width="160" relative="1" as="geometry">
            <mxPoint x="140" y="380" as="sourcePoint" />
            <mxPoint x="580" y="330" as="targetPoint" />
          </mxGeometry>
        </mxCell>
        <mxCell id="U5uW1hDHefTwVds0jNlU-24" value="&lt;span style=&quot;font-size: 24px;&quot;&gt;상품 결제&lt;/span&gt;" style="ellipse;whiteSpace=wrap;html=1;" vertex="1" parent="1">
          <mxGeometry x="570" y="530" width="170" height="120" as="geometry" />
        </mxCell>
        <mxCell id="U5uW1hDHefTwVds0jNlU-86" style="edgeStyle=orthogonalEdgeStyle;rounded=0;orthogonalLoop=1;jettySize=auto;html=1;entryX=1;entryY=0.5;entryDx=0;entryDy=0;" edge="1" parent="1" source="U5uW1hDHefTwVds0jNlU-25" target="U5uW1hDHefTwVds0jNlU-33">
          <mxGeometry relative="1" as="geometry" />
        </mxCell>
        <mxCell id="U5uW1hDHefTwVds0jNlU-25" value="&lt;span style=&quot;font-size: 24px;&quot;&gt;주문 확인&lt;/span&gt;" style="ellipse;whiteSpace=wrap;html=1;" vertex="1" parent="1">
          <mxGeometry x="820" y="290" width="70" height="70" as="geometry" />
        </mxCell>
        <mxCell id="U5uW1hDHefTwVds0jNlU-26" value="&lt;span style=&quot;font-size: 24px;&quot;&gt;상품 검색&lt;/span&gt;" style="ellipse;whiteSpace=wrap;html=1;" vertex="1" parent="1">
          <mxGeometry x="580" y="850" width="170" height="120" as="geometry" />
        </mxCell>
        <mxCell id="U5uW1hDHefTwVds0jNlU-28" value="&#xa;&lt;span style=&quot;color: rgb(0, 0, 0); font-family: Helvetica; font-size: 19px; font-style: normal; font-variant-ligatures: normal; font-variant-caps: normal; font-weight: 400; letter-spacing: normal; orphans: 2; text-align: center; text-indent: 0px; text-transform: none; widows: 2; word-spacing: 0px; -webkit-text-stroke-width: 0px; background-color: rgb(255, 255, 255); text-decoration-thickness: initial; text-decoration-style: initial; text-decoration-color: initial; float: none; display: inline !important;&quot;&gt;use&lt;/span&gt;&#xa;&#xa;" style="endArrow=open;endSize=12;html=1;rounded=0;entryX=0;entryY=0.5;entryDx=0;entryDy=0;exitX=0.5;exitY=0.5;exitDx=0;exitDy=0;exitPerimeter=0;" edge="1" parent="1" source="U5uW1hDHefTwVds0jNlU-6" target="U5uW1hDHefTwVds0jNlU-24">
          <mxGeometry width="160" relative="1" as="geometry">
            <mxPoint x="145" y="400" as="sourcePoint" />
            <mxPoint x="590" y="340" as="targetPoint" />
          </mxGeometry>
        </mxCell>
        <mxCell id="U5uW1hDHefTwVds0jNlU-30" value="&#xa;&lt;span style=&quot;color: rgb(0, 0, 0); font-family: Helvetica; font-size: 19px; font-style: normal; font-variant-ligatures: normal; font-variant-caps: normal; font-weight: 400; letter-spacing: normal; orphans: 2; text-align: center; text-indent: 0px; text-transform: none; widows: 2; word-spacing: 0px; -webkit-text-stroke-width: 0px; background-color: rgb(255, 255, 255); text-decoration-thickness: initial; text-decoration-style: initial; text-decoration-color: initial; float: none; display: inline !important;&quot;&gt;use&lt;/span&gt;&#xa;&#xa;" style="endArrow=open;endSize=12;html=1;rounded=0;entryX=0;entryY=0.5;entryDx=0;entryDy=0;exitX=0.5;exitY=0.5;exitDx=0;exitDy=0;exitPerimeter=0;" edge="1" parent="1" source="U5uW1hDHefTwVds0jNlU-7" target="U5uW1hDHefTwVds0jNlU-26">
          <mxGeometry width="160" relative="1" as="geometry">
            <mxPoint x="135" y="880" as="sourcePoint" />
            <mxPoint x="580" y="1160" as="targetPoint" />
          </mxGeometry>
        </mxCell>
        <mxCell id="U5uW1hDHefTwVds0jNlU-31" value="&lt;span style=&quot;font-size: 24px;&quot;&gt;회원가입&lt;/span&gt;" style="ellipse;whiteSpace=wrap;html=1;" vertex="1" parent="1">
          <mxGeometry x="580" y="990" width="170" height="120" as="geometry" />
        </mxCell>
        <mxCell id="U5uW1hDHefTwVds0jNlU-32" value="&#xa;&lt;span style=&quot;color: rgb(0, 0, 0); font-family: Helvetica; font-size: 19px; font-style: normal; font-variant-ligatures: normal; font-variant-caps: normal; font-weight: 400; letter-spacing: normal; orphans: 2; text-align: center; text-indent: 0px; text-transform: none; widows: 2; word-spacing: 0px; -webkit-text-stroke-width: 0px; background-color: rgb(255, 255, 255); text-decoration-thickness: initial; text-decoration-style: initial; text-decoration-color: initial; float: none; display: inline !important;&quot;&gt;use&lt;/span&gt;&#xa;&#xa;" style="endArrow=open;endSize=12;html=1;rounded=0;entryX=0;entryY=0.5;entryDx=0;entryDy=0;exitX=0.5;exitY=0.5;exitDx=0;exitDy=0;exitPerimeter=0;" edge="1" parent="1" source="U5uW1hDHefTwVds0jNlU-7" target="U5uW1hDHefTwVds0jNlU-31">
          <mxGeometry width="160" relative="1" as="geometry">
            <mxPoint x="145" y="880" as="sourcePoint" />
            <mxPoint x="590" y="920" as="targetPoint" />
          </mxGeometry>
        </mxCell>
        <mxCell id="U5uW1hDHefTwVds0jNlU-33" value="&lt;span style=&quot;font-size: 24px;&quot;&gt;나의 정보&lt;/span&gt;" style="ellipse;whiteSpace=wrap;html=1;" vertex="1" parent="1">
          <mxGeometry x="560" y="220" width="170" height="120" as="geometry" />
        </mxCell>
        <mxCell id="U5uW1hDHefTwVds0jNlU-34" value="&#xa;&lt;span style=&quot;color: rgb(0, 0, 0); font-family: Helvetica; font-size: 19px; font-style: normal; font-variant-ligatures: normal; font-variant-caps: normal; font-weight: 400; letter-spacing: normal; orphans: 2; text-align: center; text-indent: 0px; text-transform: none; widows: 2; word-spacing: 0px; -webkit-text-stroke-width: 0px; background-color: rgb(255, 255, 255); text-decoration-thickness: initial; text-decoration-style: initial; text-decoration-color: initial; float: none; display: inline !important;&quot;&gt;use&lt;/span&gt;&#xa;&#xa;" style="endArrow=open;endSize=12;html=1;rounded=0;entryX=0;entryY=0.5;entryDx=0;entryDy=0;exitX=0.5;exitY=0.5;exitDx=0;exitDy=0;exitPerimeter=0;" edge="1" parent="1" source="U5uW1hDHefTwVds0jNlU-6" target="U5uW1hDHefTwVds0jNlU-33">
          <mxGeometry width="160" relative="1" as="geometry">
            <mxPoint x="145" y="400" as="sourcePoint" />
            <mxPoint x="590" y="340" as="targetPoint" />
          </mxGeometry>
        </mxCell>
        <mxCell id="U5uW1hDHefTwVds0jNlU-83" style="edgeStyle=orthogonalEdgeStyle;rounded=0;orthogonalLoop=1;jettySize=auto;html=1;entryX=1;entryY=0.5;entryDx=0;entryDy=0;" edge="1" parent="1" source="U5uW1hDHefTwVds0jNlU-35" target="U5uW1hDHefTwVds0jNlU-33">
          <mxGeometry relative="1" as="geometry" />
        </mxCell>
        <mxCell id="U5uW1hDHefTwVds0jNlU-35" value="&lt;span style=&quot;font-size: 24px;&quot;&gt;조회&lt;br&gt;&lt;/span&gt;" style="ellipse;whiteSpace=wrap;html=1;" vertex="1" parent="1">
          <mxGeometry x="830" y="110" width="50" height="50" as="geometry" />
        </mxCell>
        <mxCell id="U5uW1hDHefTwVds0jNlU-84" style="edgeStyle=orthogonalEdgeStyle;rounded=0;orthogonalLoop=1;jettySize=auto;html=1;entryX=1;entryY=0.5;entryDx=0;entryDy=0;" edge="1" parent="1" source="U5uW1hDHefTwVds0jNlU-37" target="U5uW1hDHefTwVds0jNlU-33">
          <mxGeometry relative="1" as="geometry" />
        </mxCell>
        <mxCell id="U5uW1hDHefTwVds0jNlU-37" value="&lt;span style=&quot;font-size: 24px;&quot;&gt;수정&lt;br&gt;&lt;/span&gt;" style="ellipse;whiteSpace=wrap;html=1;" vertex="1" parent="1">
          <mxGeometry x="830" y="170" width="50" height="50" as="geometry" />
        </mxCell>
        <mxCell id="U5uW1hDHefTwVds0jNlU-85" style="edgeStyle=orthogonalEdgeStyle;rounded=0;orthogonalLoop=1;jettySize=auto;html=1;entryX=1;entryY=0.5;entryDx=0;entryDy=0;" edge="1" parent="1" source="U5uW1hDHefTwVds0jNlU-38" target="U5uW1hDHefTwVds0jNlU-33">
          <mxGeometry relative="1" as="geometry" />
        </mxCell>
        <mxCell id="U5uW1hDHefTwVds0jNlU-38" value="&lt;span style=&quot;font-size: 24px;&quot;&gt;탈퇴&lt;br&gt;&lt;/span&gt;" style="ellipse;whiteSpace=wrap;html=1;" vertex="1" parent="1">
          <mxGeometry x="830" y="230" width="50" height="50" as="geometry" />
        </mxCell>
        <mxCell id="U5uW1hDHefTwVds0jNlU-45" value="&lt;span style=&quot;font-size: 17px;&quot;&gt;&amp;lt;&amp;lt;include&amp;gt;&amp;gt;&lt;/span&gt;" style="endArrow=open;endSize=12;html=1;rounded=0;entryX=0;entryY=0.5;entryDx=0;entryDy=0;exitX=1;exitY=0.5;exitDx=0;exitDy=0;" edge="1" parent="1" source="U5uW1hDHefTwVds0jNlU-24" target="U5uW1hDHefTwVds0jNlU-10">
          <mxGeometry width="160" relative="1" as="geometry">
            <mxPoint x="760" y="680" as="sourcePoint" />
            <mxPoint x="1360" y="640" as="targetPoint" />
          </mxGeometry>
        </mxCell>
        <mxCell id="U5uW1hDHefTwVds0jNlU-46" value="&lt;span style=&quot;font-size: 17px;&quot;&gt;&amp;lt;&amp;lt;include&amp;gt;&amp;gt;&lt;/span&gt;" style="endArrow=open;endSize=12;html=1;rounded=0;entryX=0;entryY=0.5;entryDx=0;entryDy=0;exitX=1;exitY=0.5;exitDx=0;exitDy=0;" edge="1" parent="1" source="U5uW1hDHefTwVds0jNlU-16" target="U5uW1hDHefTwVds0jNlU-10">
          <mxGeometry width="160" relative="1" as="geometry">
            <mxPoint x="750" y="340" as="sourcePoint" />
            <mxPoint x="1350" y="300" as="targetPoint" />
          </mxGeometry>
        </mxCell>
        <mxCell id="U5uW1hDHefTwVds0jNlU-47" value="&lt;span style=&quot;font-size: 17px;&quot;&gt;&amp;lt;&amp;lt;include&amp;gt;&amp;gt;&lt;/span&gt;" style="endArrow=open;endSize=12;html=1;rounded=0;entryX=0;entryY=0.5;entryDx=0;entryDy=0;exitX=1;exitY=1;exitDx=0;exitDy=0;" edge="1" parent="1" source="U5uW1hDHefTwVds0jNlU-33" target="U5uW1hDHefTwVds0jNlU-10">
          <mxGeometry width="160" relative="1" as="geometry">
            <mxPoint x="770" y="310" as="sourcePoint" />
            <mxPoint x="1370" y="270" as="targetPoint" />
          </mxGeometry>
        </mxCell>
        <mxCell id="U5uW1hDHefTwVds0jNlU-48" value="&lt;span style=&quot;font-size: 17px;&quot;&gt;&amp;lt;&amp;lt;include&amp;gt;&amp;gt;&lt;/span&gt;" style="endArrow=open;endSize=12;html=1;rounded=0;entryX=0;entryY=0.5;entryDx=0;entryDy=0;exitX=1;exitY=0.5;exitDx=0;exitDy=0;" edge="1" parent="1" source="U5uW1hDHefTwVds0jNlU-31" target="U5uW1hDHefTwVds0jNlU-10">
          <mxGeometry width="160" relative="1" as="geometry">
            <mxPoint x="790" y="710" as="sourcePoint" />
            <mxPoint x="1390" y="670" as="targetPoint" />
          </mxGeometry>
        </mxCell>
        <mxCell id="U5uW1hDHefTwVds0jNlU-49" value="&lt;font style=&quot;font-size: 22px;&quot;&gt;결제사&lt;/font&gt;" style="shape=umlActor;verticalLabelPosition=bottom;verticalAlign=top;html=1;" vertex="1" parent="1">
          <mxGeometry x="1340" y="-30" width="50" height="80" as="geometry" />
        </mxCell>
        <mxCell id="U5uW1hDHefTwVds0jNlU-50" value="&lt;span style=&quot;font-size: 24px;&quot;&gt;배송 정보 확인&lt;/span&gt;" style="ellipse;whiteSpace=wrap;html=1;" vertex="1" parent="1">
          <mxGeometry x="1050" y="285" width="90" height="80" as="geometry" />
        </mxCell>
        <mxCell id="U5uW1hDHefTwVds0jNlU-51" value="&lt;span style=&quot;font-size: 17px;&quot;&gt;&amp;lt;&amp;lt;extend&amp;gt;&amp;gt;&lt;/span&gt;" style="endArrow=open;endSize=12;html=1;rounded=0;entryX=1;entryY=0.5;entryDx=0;entryDy=0;exitX=0;exitY=0.5;exitDx=0;exitDy=0;" edge="1" parent="1" source="U5uW1hDHefTwVds0jNlU-50" target="U5uW1hDHefTwVds0jNlU-25">
          <mxGeometry width="160" relative="1" as="geometry">
            <mxPoint x="760" y="680" as="sourcePoint" />
            <mxPoint x="1360" y="640" as="targetPoint" />
          </mxGeometry>
        </mxCell>
        <mxCell id="U5uW1hDHefTwVds0jNlU-52" value="&lt;span style=&quot;font-size: 24px;&quot;&gt;로그인&lt;/span&gt;" style="ellipse;whiteSpace=wrap;html=1;" vertex="1" parent="1">
          <mxGeometry x="580" y="1130" width="170" height="120" as="geometry" />
        </mxCell>
        <mxCell id="U5uW1hDHefTwVds0jNlU-54" value="&#xa;&lt;span style=&quot;color: rgb(0, 0, 0); font-family: Helvetica; font-size: 19px; font-style: normal; font-variant-ligatures: normal; font-variant-caps: normal; font-weight: 400; letter-spacing: normal; orphans: 2; text-align: center; text-indent: 0px; text-transform: none; widows: 2; word-spacing: 0px; -webkit-text-stroke-width: 0px; background-color: rgb(255, 255, 255); text-decoration-thickness: initial; text-decoration-style: initial; text-decoration-color: initial; float: none; display: inline !important;&quot;&gt;use&lt;/span&gt;&#xa;&#xa;" style="endArrow=open;endSize=12;html=1;rounded=0;entryX=1;entryY=0.5;entryDx=0;entryDy=0;exitX=0.5;exitY=0.5;exitDx=0;exitDy=0;exitPerimeter=0;" edge="1" parent="1" source="U5uW1hDHefTwVds0jNlU-49" target="U5uW1hDHefTwVds0jNlU-24">
          <mxGeometry width="160" relative="1" as="geometry">
            <mxPoint x="1400" y="220" as="sourcePoint" />
            <mxPoint x="1835" y="420" as="targetPoint" />
            <Array as="points">
              <mxPoint x="1010" y="270" />
            </Array>
          </mxGeometry>
        </mxCell>
        <mxCell id="U5uW1hDHefTwVds0jNlU-56" value="&lt;font style=&quot;font-size: 16px;&quot;&gt;&amp;lt;&amp;lt;include&amp;gt;&amp;gt;&lt;/font&gt;" style="endArrow=open;endSize=12;html=1;rounded=0;entryX=0;entryY=0.5;entryDx=0;entryDy=0;exitX=1;exitY=0.5;exitDx=0;exitDy=0;" edge="1" parent="1" source="U5uW1hDHefTwVds0jNlU-52" target="U5uW1hDHefTwVds0jNlU-10">
          <mxGeometry width="160" relative="1" as="geometry">
            <mxPoint x="740" y="1190" as="sourcePoint" />
            <mxPoint x="1175" y="1390" as="targetPoint" />
          </mxGeometry>
        </mxCell>
        <mxCell id="U5uW1hDHefTwVds0jNlU-57" value="&#xa;&lt;span style=&quot;color: rgb(0, 0, 0); font-family: Helvetica; font-size: 19px; font-style: normal; font-variant-ligatures: normal; font-variant-caps: normal; font-weight: 400; letter-spacing: normal; orphans: 2; text-align: center; text-indent: 0px; text-transform: none; widows: 2; word-spacing: 0px; -webkit-text-stroke-width: 0px; background-color: rgb(255, 255, 255); text-decoration-thickness: initial; text-decoration-style: initial; text-decoration-color: initial; float: none; display: inline !important;&quot;&gt;use&lt;/span&gt;&#xa;&#xa;" style="endArrow=open;endSize=12;html=1;rounded=0;entryX=0;entryY=0.5;entryDx=0;entryDy=0;exitX=0.5;exitY=0.5;exitDx=0;exitDy=0;exitPerimeter=0;" edge="1" parent="1" source="U5uW1hDHefTwVds0jNlU-7" target="U5uW1hDHefTwVds0jNlU-52">
          <mxGeometry width="160" relative="1" as="geometry">
            <mxPoint x="145" y="890" as="sourcePoint" />
            <mxPoint x="590" y="1060" as="targetPoint" />
          </mxGeometry>
        </mxCell>
        <mxCell id="U5uW1hDHefTwVds0jNlU-58" value="&lt;span style=&quot;font-size: 24px;&quot;&gt;신용카드&lt;/span&gt;" style="ellipse;whiteSpace=wrap;html=1;" vertex="1" parent="1">
          <mxGeometry x="820" y="660" width="70" height="70" as="geometry" />
        </mxCell>
        <mxCell id="U5uW1hDHefTwVds0jNlU-59" value="&lt;span style=&quot;font-size: 24px;&quot;&gt;무통장&lt;/span&gt;" style="ellipse;whiteSpace=wrap;html=1;" vertex="1" parent="1">
          <mxGeometry x="710" y="700" width="70" height="70" as="geometry" />
        </mxCell>
        <mxCell id="U5uW1hDHefTwVds0jNlU-62" value="&lt;span style=&quot;font-size: 17px;&quot;&gt;&amp;lt;&amp;lt;extend&amp;gt;&amp;gt;&lt;/span&gt;" style="endArrow=open;endSize=12;html=1;rounded=0;entryX=1;entryY=1;entryDx=0;entryDy=0;exitX=0;exitY=0;exitDx=0;exitDy=0;" edge="1" parent="1" source="U5uW1hDHefTwVds0jNlU-58" target="U5uW1hDHefTwVds0jNlU-24">
          <mxGeometry width="160" relative="1" as="geometry">
            <mxPoint x="1030" y="355" as="sourcePoint" />
            <mxPoint x="920" y="355" as="targetPoint" />
          </mxGeometry>
        </mxCell>
        <mxCell id="U5uW1hDHefTwVds0jNlU-63" value="&lt;span style=&quot;font-size: 17px;&quot;&gt;&amp;lt;&amp;lt;extend&amp;gt;&amp;gt;&lt;/span&gt;" style="endArrow=open;endSize=12;html=1;rounded=0;entryX=0.5;entryY=1;entryDx=0;entryDy=0;exitX=0;exitY=0;exitDx=0;exitDy=0;" edge="1" parent="1" source="U5uW1hDHefTwVds0jNlU-59" target="U5uW1hDHefTwVds0jNlU-24">
          <mxGeometry width="160" relative="1" as="geometry">
            <mxPoint x="1040" y="365" as="sourcePoint" />
            <mxPoint x="930" y="365" as="targetPoint" />
          </mxGeometry>
        </mxCell>
        <mxCell id="U5uW1hDHefTwVds0jNlU-65" value="&lt;font style=&quot;font-size: 24px;&quot;&gt;회원 관리&lt;br&gt;&lt;/font&gt;" style="ellipse;whiteSpace=wrap;html=1;" vertex="1" parent="1">
          <mxGeometry x="2230" y="440" width="170" height="120" as="geometry" />
        </mxCell>
        <mxCell id="U5uW1hDHefTwVds0jNlU-66" value="&lt;font style=&quot;font-size: 24px;&quot;&gt;상품 관리&lt;br&gt;&lt;/font&gt;" style="ellipse;whiteSpace=wrap;html=1;" vertex="1" parent="1">
          <mxGeometry x="2230" y="650" width="170" height="120" as="geometry" />
        </mxCell>
        <mxCell id="U5uW1hDHefTwVds0jNlU-67" value="&lt;font style=&quot;font-size: 24px;&quot;&gt;카테고리 관리&lt;br&gt;&lt;/font&gt;" style="ellipse;whiteSpace=wrap;html=1;" vertex="1" parent="1">
          <mxGeometry x="2230" y="850" width="170" height="120" as="geometry" />
        </mxCell>
        <mxCell id="U5uW1hDHefTwVds0jNlU-68" value="&#xa;&lt;span style=&quot;color: rgb(0, 0, 0); font-family: Helvetica; font-size: 19px; font-style: normal; font-variant-ligatures: normal; font-variant-caps: normal; font-weight: 400; letter-spacing: normal; orphans: 2; text-align: center; text-indent: 0px; text-transform: none; widows: 2; word-spacing: 0px; -webkit-text-stroke-width: 0px; background-color: rgb(255, 255, 255); text-decoration-thickness: initial; text-decoration-style: initial; text-decoration-color: initial; float: none; display: inline !important;&quot;&gt;use&lt;/span&gt;&#xa;&#xa;" style="endArrow=open;endSize=12;html=1;rounded=0;entryX=1;entryY=0.5;entryDx=0;entryDy=0;exitX=0.5;exitY=0.5;exitDx=0;exitDy=0;exitPerimeter=0;" edge="1" parent="1" source="U5uW1hDHefTwVds0jNlU-8" target="U5uW1hDHefTwVds0jNlU-65">
          <mxGeometry width="160" relative="1" as="geometry">
            <mxPoint x="2400" y="575" as="sourcePoint" />
            <mxPoint x="2845" y="605" as="targetPoint" />
          </mxGeometry>
        </mxCell>
        <mxCell id="U5uW1hDHefTwVds0jNlU-69" value="&#xa;&lt;span style=&quot;color: rgb(0, 0, 0); font-family: Helvetica; font-size: 19px; font-style: normal; font-variant-ligatures: normal; font-variant-caps: normal; font-weight: 400; letter-spacing: normal; orphans: 2; text-align: center; text-indent: 0px; text-transform: none; widows: 2; word-spacing: 0px; -webkit-text-stroke-width: 0px; background-color: rgb(255, 255, 255); text-decoration-thickness: initial; text-decoration-style: initial; text-decoration-color: initial; float: none; display: inline !important;&quot;&gt;use&lt;/span&gt;&#xa;&#xa;" style="endArrow=open;endSize=12;html=1;rounded=0;entryX=1;entryY=0.5;entryDx=0;entryDy=0;exitX=0.5;exitY=0.5;exitDx=0;exitDy=0;exitPerimeter=0;" edge="1" parent="1" source="U5uW1hDHefTwVds0jNlU-8" target="U5uW1hDHefTwVds0jNlU-66">
          <mxGeometry width="160" relative="1" as="geometry">
            <mxPoint x="2935" y="590" as="sourcePoint" />
            <mxPoint x="2410" y="510" as="targetPoint" />
          </mxGeometry>
        </mxCell>
        <mxCell id="U5uW1hDHefTwVds0jNlU-70" value="&#xa;&lt;span style=&quot;color: rgb(0, 0, 0); font-family: Helvetica; font-size: 19px; font-style: normal; font-variant-ligatures: normal; font-variant-caps: normal; font-weight: 400; letter-spacing: normal; orphans: 2; text-align: center; text-indent: 0px; text-transform: none; widows: 2; word-spacing: 0px; -webkit-text-stroke-width: 0px; background-color: rgb(255, 255, 255); text-decoration-thickness: initial; text-decoration-style: initial; text-decoration-color: initial; float: none; display: inline !important;&quot;&gt;use&lt;/span&gt;&#xa;&#xa;" style="endArrow=open;endSize=12;html=1;rounded=0;entryX=1;entryY=0.5;entryDx=0;entryDy=0;exitX=0.5;exitY=0.5;exitDx=0;exitDy=0;exitPerimeter=0;" edge="1" parent="1" source="U5uW1hDHefTwVds0jNlU-8" target="U5uW1hDHefTwVds0jNlU-67">
          <mxGeometry width="160" relative="1" as="geometry">
            <mxPoint x="2945" y="600" as="sourcePoint" />
            <mxPoint x="2420" y="520" as="targetPoint" />
          </mxGeometry>
        </mxCell>
        <mxCell id="U5uW1hDHefTwVds0jNlU-74" style="edgeStyle=orthogonalEdgeStyle;rounded=0;orthogonalLoop=1;jettySize=auto;html=1;entryX=0.5;entryY=0;entryDx=0;entryDy=0;" edge="1" parent="1" source="U5uW1hDHefTwVds0jNlU-71" target="U5uW1hDHefTwVds0jNlU-65">
          <mxGeometry relative="1" as="geometry" />
        </mxCell>
        <mxCell id="U5uW1hDHefTwVds0jNlU-71" value="&lt;span style=&quot;font-size: 24px;&quot;&gt;조회&lt;br&gt;&lt;/span&gt;" style="ellipse;whiteSpace=wrap;html=1;" vertex="1" parent="1">
          <mxGeometry x="2200" y="320" width="50" height="50" as="geometry" />
        </mxCell>
        <mxCell id="U5uW1hDHefTwVds0jNlU-75" value="" style="edgeStyle=orthogonalEdgeStyle;rounded=0;orthogonalLoop=1;jettySize=auto;html=1;" edge="1" parent="1" source="U5uW1hDHefTwVds0jNlU-72" target="U5uW1hDHefTwVds0jNlU-65">
          <mxGeometry relative="1" as="geometry" />
        </mxCell>
        <mxCell id="U5uW1hDHefTwVds0jNlU-72" value="&lt;span style=&quot;font-size: 24px;&quot;&gt;수정&lt;br&gt;&lt;/span&gt;" style="ellipse;whiteSpace=wrap;html=1;" vertex="1" parent="1">
          <mxGeometry x="2290" y="320" width="50" height="50" as="geometry" />
        </mxCell>
        <mxCell id="U5uW1hDHefTwVds0jNlU-76" style="edgeStyle=orthogonalEdgeStyle;rounded=0;orthogonalLoop=1;jettySize=auto;html=1;entryX=0.5;entryY=0;entryDx=0;entryDy=0;" edge="1" parent="1" source="U5uW1hDHefTwVds0jNlU-73" target="U5uW1hDHefTwVds0jNlU-65">
          <mxGeometry relative="1" as="geometry" />
        </mxCell>
        <mxCell id="U5uW1hDHefTwVds0jNlU-73" value="&lt;span style=&quot;font-size: 24px;&quot;&gt;삭제&lt;br&gt;&lt;/span&gt;" style="ellipse;whiteSpace=wrap;html=1;" vertex="1" parent="1">
          <mxGeometry x="2380" y="320" width="50" height="50" as="geometry" />
        </mxCell>
        <mxCell id="U5uW1hDHefTwVds0jNlU-77" value="&lt;span style=&quot;font-size: 17px;&quot;&gt;&amp;lt;&amp;lt;include&amp;gt;&amp;gt;&lt;/span&gt;" style="endArrow=open;endSize=12;html=1;rounded=0;entryX=1;entryY=0.5;entryDx=0;entryDy=0;exitX=0;exitY=0.5;exitDx=0;exitDy=0;" edge="1" parent="1" source="U5uW1hDHefTwVds0jNlU-66" target="U5uW1hDHefTwVds0jNlU-10">
          <mxGeometry width="160" relative="1" as="geometry">
            <mxPoint x="2220" y="730" as="sourcePoint" />
            <mxPoint x="2830" y="920" as="targetPoint" />
          </mxGeometry>
        </mxCell>
        <mxCell id="U5uW1hDHefTwVds0jNlU-78" value="&lt;span style=&quot;font-size: 17px;&quot;&gt;&amp;lt;&amp;lt;include&amp;gt;&amp;gt;&lt;/span&gt;" style="endArrow=open;endSize=12;html=1;rounded=0;entryX=1;entryY=0.5;entryDx=0;entryDy=0;exitX=0;exitY=0.5;exitDx=0;exitDy=0;" edge="1" parent="1" source="U5uW1hDHefTwVds0jNlU-65" target="U5uW1hDHefTwVds0jNlU-10">
          <mxGeometry width="160" relative="1" as="geometry">
            <mxPoint x="2240" y="720" as="sourcePoint" />
            <mxPoint x="1530" y="640" as="targetPoint" />
          </mxGeometry>
        </mxCell>
        <mxCell id="U5uW1hDHefTwVds0jNlU-79" value="&lt;span style=&quot;font-size: 17px;&quot;&gt;&amp;lt;&amp;lt;include&amp;gt;&amp;gt;&lt;/span&gt;" style="endArrow=open;endSize=12;html=1;rounded=0;entryX=1;entryY=0.5;entryDx=0;entryDy=0;exitX=0;exitY=0.5;exitDx=0;exitDy=0;" edge="1" parent="1" source="U5uW1hDHefTwVds0jNlU-67" target="U5uW1hDHefTwVds0jNlU-10">
          <mxGeometry width="160" relative="1" as="geometry">
            <mxPoint x="2250" y="730" as="sourcePoint" />
            <mxPoint x="1540" y="650" as="targetPoint" />
          </mxGeometry>
        </mxCell>
        <mxCell id="U5uW1hDHefTwVds0jNlU-80" value="&lt;span style=&quot;font-size: 24px;&quot;&gt;카테고리 상세검색&lt;/span&gt;" style="ellipse;whiteSpace=wrap;html=1;" vertex="1" parent="1">
          <mxGeometry x="800" y="800" width="120" height="90" as="geometry" />
        </mxCell>
        <mxCell id="U5uW1hDHefTwVds0jNlU-89" value="&lt;span style=&quot;font-size: 17px;&quot;&gt;&amp;lt;&amp;lt;extend&amp;gt;&amp;gt;&lt;/span&gt;" style="endArrow=open;endSize=12;html=1;rounded=0;entryX=1;entryY=0.5;entryDx=0;entryDy=0;exitX=0;exitY=0.5;exitDx=0;exitDy=0;" edge="1" parent="1" source="U5uW1hDHefTwVds0jNlU-80" target="U5uW1hDHefTwVds0jNlU-26">
          <mxGeometry width="160" relative="1" as="geometry">
            <mxPoint x="780" y="835" as="sourcePoint" />
            <mxPoint x="620" y="820" as="targetPoint" />
          </mxGeometry>
        </mxCell>
        <mxCell id="U5uW1hDHefTwVds0jNlU-97" style="edgeStyle=orthogonalEdgeStyle;rounded=0;orthogonalLoop=1;jettySize=auto;html=1;entryX=0;entryY=0.5;entryDx=0;entryDy=0;" edge="1" parent="1" source="U5uW1hDHefTwVds0jNlU-90" target="U5uW1hDHefTwVds0jNlU-66">
          <mxGeometry relative="1" as="geometry" />
        </mxCell>
        <mxCell id="U5uW1hDHefTwVds0jNlU-90" value="&lt;span style=&quot;font-size: 24px;&quot;&gt;조회&lt;br&gt;&lt;/span&gt;" style="ellipse;whiteSpace=wrap;html=1;" vertex="1" parent="1">
          <mxGeometry x="2170" y="580" width="50" height="50" as="geometry" />
        </mxCell>
        <mxCell id="U5uW1hDHefTwVds0jNlU-100" style="edgeStyle=orthogonalEdgeStyle;rounded=0;orthogonalLoop=1;jettySize=auto;html=1;entryX=0.5;entryY=1;entryDx=0;entryDy=0;" edge="1" parent="1" source="U5uW1hDHefTwVds0jNlU-91" target="U5uW1hDHefTwVds0jNlU-67">
          <mxGeometry relative="1" as="geometry" />
        </mxCell>
        <mxCell id="U5uW1hDHefTwVds0jNlU-91" value="&lt;span style=&quot;font-size: 24px;&quot;&gt;조회&lt;br&gt;&lt;/span&gt;" style="ellipse;whiteSpace=wrap;html=1;" vertex="1" parent="1">
          <mxGeometry x="2180" y="1070" width="50" height="50" as="geometry" />
        </mxCell>
        <mxCell id="U5uW1hDHefTwVds0jNlU-98" style="edgeStyle=orthogonalEdgeStyle;rounded=0;orthogonalLoop=1;jettySize=auto;html=1;entryX=0.5;entryY=0;entryDx=0;entryDy=0;" edge="1" parent="1" source="U5uW1hDHefTwVds0jNlU-93" target="U5uW1hDHefTwVds0jNlU-66">
          <mxGeometry relative="1" as="geometry" />
        </mxCell>
        <mxCell id="U5uW1hDHefTwVds0jNlU-93" value="&lt;span style=&quot;font-size: 24px;&quot;&gt;수정&lt;br&gt;&lt;/span&gt;" style="ellipse;whiteSpace=wrap;html=1;" vertex="1" parent="1">
          <mxGeometry x="2300" y="580" width="50" height="50" as="geometry" />
        </mxCell>
        <mxCell id="U5uW1hDHefTwVds0jNlU-101" style="edgeStyle=orthogonalEdgeStyle;rounded=0;orthogonalLoop=1;jettySize=auto;html=1;entryX=0.5;entryY=1;entryDx=0;entryDy=0;" edge="1" parent="1" source="U5uW1hDHefTwVds0jNlU-94" target="U5uW1hDHefTwVds0jNlU-67">
          <mxGeometry relative="1" as="geometry" />
        </mxCell>
        <mxCell id="U5uW1hDHefTwVds0jNlU-94" value="&lt;span style=&quot;font-size: 24px;&quot;&gt;수정&lt;br&gt;&lt;/span&gt;" style="ellipse;whiteSpace=wrap;html=1;" vertex="1" parent="1">
          <mxGeometry x="2300" y="1070" width="50" height="50" as="geometry" />
        </mxCell>
        <mxCell id="U5uW1hDHefTwVds0jNlU-99" style="edgeStyle=orthogonalEdgeStyle;rounded=0;orthogonalLoop=1;jettySize=auto;html=1;" edge="1" parent="1" source="U5uW1hDHefTwVds0jNlU-95">
          <mxGeometry relative="1" as="geometry">
            <mxPoint x="2400" y="710" as="targetPoint" />
          </mxGeometry>
        </mxCell>
        <mxCell id="U5uW1hDHefTwVds0jNlU-95" value="&lt;span style=&quot;font-size: 24px;&quot;&gt;삭제&lt;br&gt;&lt;/span&gt;" style="ellipse;whiteSpace=wrap;html=1;" vertex="1" parent="1">
          <mxGeometry x="2400" y="580" width="50" height="50" as="geometry" />
        </mxCell>
        <mxCell id="U5uW1hDHefTwVds0jNlU-108" style="edgeStyle=orthogonalEdgeStyle;rounded=0;orthogonalLoop=1;jettySize=auto;html=1;entryX=0.5;entryY=1;entryDx=0;entryDy=0;" edge="1" parent="1" source="U5uW1hDHefTwVds0jNlU-96" target="U5uW1hDHefTwVds0jNlU-67">
          <mxGeometry relative="1" as="geometry">
            <mxPoint x="2320" y="1020" as="targetPoint" />
            <Array as="points">
              <mxPoint x="2455" y="1020" />
              <mxPoint x="2315" y="1020" />
            </Array>
          </mxGeometry>
        </mxCell>
        <mxCell id="U5uW1hDHefTwVds0jNlU-96" value="&lt;span style=&quot;font-size: 24px;&quot;&gt;삭제&lt;br&gt;&lt;/span&gt;" style="ellipse;whiteSpace=wrap;html=1;" vertex="1" parent="1">
          <mxGeometry x="2430" y="1070" width="50" height="50" as="geometry" />
        </mxCell>
        <mxCell id="U5uW1hDHefTwVds0jNlU-109" value="&lt;font style=&quot;font-size: 24px;&quot;&gt;주문 관리&lt;br&gt;&lt;/font&gt;" style="ellipse;whiteSpace=wrap;html=1;" vertex="1" parent="1">
          <mxGeometry x="2230" y="120" width="170" height="120" as="geometry" />
        </mxCell>
        <mxCell id="U5uW1hDHefTwVds0jNlU-110" value="&#xa;&lt;span style=&quot;color: rgb(0, 0, 0); font-family: Helvetica; font-size: 19px; font-style: normal; font-variant-ligatures: normal; font-variant-caps: normal; font-weight: 400; letter-spacing: normal; orphans: 2; text-align: center; text-indent: 0px; text-transform: none; widows: 2; word-spacing: 0px; -webkit-text-stroke-width: 0px; background-color: rgb(255, 255, 255); text-decoration-thickness: initial; text-decoration-style: initial; text-decoration-color: initial; float: none; display: inline !important;&quot;&gt;use&lt;/span&gt;&#xa;&#xa;" style="endArrow=open;endSize=12;html=1;rounded=0;entryX=1;entryY=0.5;entryDx=0;entryDy=0;exitX=0.5;exitY=0.5;exitDx=0;exitDy=0;exitPerimeter=0;" edge="1" parent="1" source="U5uW1hDHefTwVds0jNlU-8" target="U5uW1hDHefTwVds0jNlU-109">
          <mxGeometry width="160" relative="1" as="geometry">
            <mxPoint x="2935" y="590" as="sourcePoint" />
            <mxPoint x="2410" y="510" as="targetPoint" />
          </mxGeometry>
        </mxCell>
        <mxCell id="U5uW1hDHefTwVds0jNlU-111" value="&lt;font style=&quot;font-size: 22px;&quot;&gt;배송사&lt;/font&gt;" style="shape=umlActor;verticalLabelPosition=bottom;verticalAlign=top;html=1;" vertex="1" parent="1">
          <mxGeometry x="2900" y="110" width="50" height="80" as="geometry" />
        </mxCell>
        <mxCell id="U5uW1hDHefTwVds0jNlU-112" value="&lt;span style=&quot;font-size: 17px;&quot;&gt;&amp;lt;&amp;lt;include&amp;gt;&amp;gt;&lt;/span&gt;" style="endArrow=open;endSize=12;html=1;rounded=0;entryX=1;entryY=0.5;entryDx=0;entryDy=0;exitX=0;exitY=0.5;exitDx=0;exitDy=0;" edge="1" parent="1" source="U5uW1hDHefTwVds0jNlU-109" target="U5uW1hDHefTwVds0jNlU-10">
          <mxGeometry width="160" relative="1" as="geometry">
            <mxPoint x="2240" y="510" as="sourcePoint" />
            <mxPoint x="1530" y="640" as="targetPoint" />
          </mxGeometry>
        </mxCell>
        <mxCell id="U5uW1hDHefTwVds0jNlU-113" value="&#xa;&lt;span style=&quot;color: rgb(0, 0, 0); font-family: Helvetica; font-size: 19px; font-style: normal; font-variant-ligatures: normal; font-variant-caps: normal; font-weight: 400; letter-spacing: normal; orphans: 2; text-align: center; text-indent: 0px; text-transform: none; widows: 2; word-spacing: 0px; -webkit-text-stroke-width: 0px; background-color: rgb(255, 255, 255); text-decoration-thickness: initial; text-decoration-style: initial; text-decoration-color: initial; float: none; display: inline !important;&quot;&gt;use&lt;/span&gt;&#xa;&#xa;" style="endArrow=open;endSize=12;html=1;rounded=0;entryX=1;entryY=0.5;entryDx=0;entryDy=0;exitX=0.5;exitY=0.5;exitDx=0;exitDy=0;exitPerimeter=0;" edge="1" parent="1" source="U5uW1hDHefTwVds0jNlU-111" target="U5uW1hDHefTwVds0jNlU-109">
          <mxGeometry width="160" relative="1" as="geometry">
            <mxPoint x="2935" y="590" as="sourcePoint" />
            <mxPoint x="2410" y="190" as="targetPoint" />
          </mxGeometry>
        </mxCell>
        <mxCell id="U5uW1hDHefTwVds0jNlU-115" style="edgeStyle=orthogonalEdgeStyle;rounded=0;orthogonalLoop=1;jettySize=auto;html=1;entryX=1;entryY=0.5;entryDx=0;entryDy=0;" edge="1" parent="1" source="U5uW1hDHefTwVds0jNlU-114" target="U5uW1hDHefTwVds0jNlU-109">
          <mxGeometry relative="1" as="geometry" />
        </mxCell>
        <mxCell id="U5uW1hDHefTwVds0jNlU-114" value="&lt;span style=&quot;font-size: 24px;&quot;&gt;조회&lt;br&gt;&lt;/span&gt;" style="ellipse;whiteSpace=wrap;html=1;" vertex="1" parent="1">
          <mxGeometry x="2480" y="110" width="50" height="50" as="geometry" />
        </mxCell>
        <mxCell id="U5uW1hDHefTwVds0jNlU-117" style="edgeStyle=orthogonalEdgeStyle;rounded=0;orthogonalLoop=1;jettySize=auto;html=1;" edge="1" parent="1" source="U5uW1hDHefTwVds0jNlU-116">
          <mxGeometry relative="1" as="geometry">
            <mxPoint x="2400" y="180" as="targetPoint" />
          </mxGeometry>
        </mxCell>
        <mxCell id="U5uW1hDHefTwVds0jNlU-116" value="&lt;span style=&quot;font-size: 24px;&quot;&gt;반송&lt;br&gt;&lt;/span&gt;" style="ellipse;whiteSpace=wrap;html=1;" vertex="1" parent="1">
          <mxGeometry x="2480" y="180" width="50" height="50" as="geometry" />
        </mxCell>
        <mxCell id="U5uW1hDHefTwVds0jNlU-119" style="edgeStyle=orthogonalEdgeStyle;rounded=0;orthogonalLoop=1;jettySize=auto;html=1;" edge="1" parent="1" source="U5uW1hDHefTwVds0jNlU-118">
          <mxGeometry relative="1" as="geometry">
            <mxPoint x="2400" y="180" as="targetPoint" />
            <Array as="points">
              <mxPoint x="2440" y="295" />
              <mxPoint x="2440" y="180" />
            </Array>
          </mxGeometry>
        </mxCell>
        <mxCell id="U5uW1hDHefTwVds0jNlU-118" value="&lt;span style=&quot;font-size: 24px;&quot;&gt;환불&lt;br&gt;&lt;/span&gt;" style="ellipse;whiteSpace=wrap;html=1;" vertex="1" parent="1">
          <mxGeometry x="2480" y="270" width="50" height="50" as="geometry" />
        </mxCell>
        <mxCell id="U5uW1hDHefTwVds0jNlU-120" value="&lt;ul style=&quot;font-size: 24px;&quot;&gt;&lt;li&gt;유즈케이스 명 : 나의 정보(주문 조회)&lt;/li&gt;&lt;li&gt;행위자 : 회원, 주문 관리 시스템&lt;/li&gt;&lt;li&gt;유즈케이스 개요 및 설명 : 회원이 나의 정보에서 자신이 구매한 주문을 조회한다.&lt;/li&gt;&lt;li&gt;사전 조건 : 회원은 로그인한 상태이다.&lt;/li&gt;&lt;li&gt;이벤트 흐름&lt;/li&gt;&lt;/ul&gt;&lt;div style=&quot;font-size: 25px;&quot;&gt;1. 회원은 나의 정보에서 주문 조회를 선택한다.&lt;/div&gt;&lt;div style=&quot;font-size: 25px;&quot;&gt;2. 주문 관리 시스템이 주문한 상품의 정보가 화면에 띄운다.&lt;/div&gt;&lt;div style=&quot;font-size: 25px;&quot;&gt;3. 상세 정보를 누를 경우 배송 정보 현황이 띄워진다.&lt;/div&gt;&lt;div style=&quot;font-size: 25px;&quot;&gt;3-1. 상세 정보를 누를 경우 주문 정보의 수정이 가능해진다.(주소지)&lt;/div&gt;&lt;div style=&quot;&quot;&gt;&lt;ul style=&quot;font-size: 25px;&quot;&gt;&lt;li&gt;&lt;span style=&quot;background-color: initial;&quot;&gt;대안흐름&lt;/span&gt;&lt;/li&gt;&lt;/ul&gt;&lt;span style=&quot;font-size: 25px;&quot;&gt;&amp;nbsp;- 주문 정보 수정 시 [정말 주문 정보를 수정하시겠습니까?]를 출력 한 후 예를 누를 경우 주문 정보 수정 화면으로 간다. 아니오를 누를 경우 이전 주문 정보로 돌아간다.&lt;/span&gt;&lt;/div&gt;&lt;div style=&quot;&quot;&gt;&lt;span style=&quot;font-size: 25px;&quot;&gt;&amp;nbsp;- 주문 정보 수정 후 [다른 주문도 확인하시겠습니까?]를 출력 한 후 예를 누를 경우 주문 조회로 돌아간다. 아니오를 누를 경우 나의 정보로 돌아간다.&lt;/span&gt;&lt;/div&gt;&lt;div style=&quot;&quot;&gt;&lt;ul style=&quot;font-size: 25px;&quot;&gt;&lt;li&gt;예외흐름&lt;/li&gt;&lt;/ul&gt;&lt;/div&gt;&lt;div style=&quot;font-size: 25px;&quot;&gt;&amp;nbsp;- 주문 정보 조회를 누를 경우 주문 이력이 없다면 [주문하신 상품이 존재하지 않습니다.]를 출력한 후&amp;nbsp;&lt;span style=&quot;background-color: initial;&quot;&gt;나의 정보로 돌아간다.&lt;/span&gt;&lt;/div&gt;&lt;div style=&quot;font-size: 25px;&quot;&gt;&amp;nbsp;- 상세 정보를 누를 경우 배송이 시작되지 않았을때 [배송이 시작되지 않았습니다.]를 출력 후 주문 조회로 돌아간다.&lt;/div&gt;&lt;div style=&quot;font-size: 25px;&quot;&gt;&amp;nbsp;- 상세 정보에서 주문 수정 시 배달이 시작되었을 경우[배송 시작 후 수정이 불가능 합니다.]를 출력 후 상세 정보로 돌아간다.&amp;nbsp;&lt;/div&gt;" style="rounded=0;whiteSpace=wrap;html=1;align=left;" vertex="1" parent="1">
          <mxGeometry x="260" y="1370" width="1330" height="750" as="geometry" />
        </mxCell>
        <mxCell id="U5uW1hDHefTwVds0jNlU-121" value="&lt;ul style=&quot;font-size: 24px;&quot;&gt;&lt;li&gt;유즈케이스 명 : 상품 결제&lt;/li&gt;&lt;li&gt;행위자 : 회원, 결제사, 상품 결제 시스템&lt;/li&gt;&lt;li&gt;유즈케이스 개요 및 설명 :&amp;nbsp;&lt;/li&gt;&lt;li&gt;사전 조건 :&amp;nbsp;&lt;/li&gt;&lt;li&gt;이벤트 흐름&lt;/li&gt;&lt;/ul&gt;&lt;div style=&quot;font-size: 25px;&quot;&gt;1.&amp;nbsp;&lt;/div&gt;&lt;div style=&quot;font-size: 25px;&quot;&gt;2.&amp;nbsp;&lt;/div&gt;&lt;div style=&quot;font-size: 25px;&quot;&gt;3.&amp;nbsp;&lt;/div&gt;&lt;div style=&quot;&quot;&gt;&lt;ul style=&quot;font-size: 25px;&quot;&gt;&lt;li&gt;&lt;span style=&quot;background-color: initial;&quot;&gt;대안흐름&lt;/span&gt;&lt;/li&gt;&lt;/ul&gt;&lt;span style=&quot;font-size: 25px;&quot;&gt;&amp;nbsp;-&amp;nbsp;&lt;/span&gt;&lt;/div&gt;&lt;div style=&quot;&quot;&gt;&lt;span style=&quot;font-size: 25px; background-color: initial;&quot;&gt;&amp;nbsp;-&amp;nbsp;&lt;/span&gt;&lt;/div&gt;&lt;div style=&quot;&quot;&gt;&lt;ul style=&quot;font-size: 25px;&quot;&gt;&lt;li&gt;예외흐름&lt;/li&gt;&lt;/ul&gt;&lt;/div&gt;&lt;div style=&quot;font-size: 25px;&quot;&gt;&amp;nbsp;-&amp;nbsp;&lt;/div&gt;&lt;div style=&quot;font-size: 25px;&quot;&gt;&amp;nbsp;-&amp;nbsp;&lt;/div&gt;&lt;div style=&quot;font-size: 25px;&quot;&gt;&amp;nbsp;-&amp;nbsp;&lt;/div&gt;" style="rounded=0;whiteSpace=wrap;html=1;align=left;" vertex="1" parent="1">
          <mxGeometry x="1650" y="1370" width="1330" height="750" as="geometry" />
        </mxCell>
      </root>
    </mxGraphModel>
  </diagram>
</mxfile>
